<svg xmlns="http://www.w3.org/2000/svg" width="157" height="161" viewBox="0 0 157 161">
<g>
<path d="M 108.18 139.75 C101.22,143.20 99.96,143.48 90.59,143.72 C80.01,143.99 76.09,143.17 68.04,139.04 C61.71,135.78 54.08,127.50 50.00,119.44 C46.63,112.79 46.50,112.12 46.50,101.52 C46.50,88.29 48.13,83.42 57.00,70.15 C62.70,61.65 84.62,38.50 88.31,37.10 C89.69,36.58 92.07,38.36 98.31,44.55 C102.81,49.02 107.51,53.22 108.75,53.88 C109.99,54.53 111.00,55.52 111.00,56.08 C111.00,56.63 113.22,59.76 115.94,63.02 C122.31,70.67 127.50,79.57 130.12,87.33 C131.81,92.33 132.13,95.30 131.82,103.00 C131.49,111.10 130.97,113.49 128.28,119.22 C123.92,128.53 117.38,135.21 108.18,139.75 ZM 77.62 131.44 C83.57,133.62 94.91,133.38 101.45,130.93 C108.04,128.47 114.72,122.18 118.06,115.31 C121.48,108.29 121.91,96.46 119.04,88.81 C117.04,83.49 105.12,65.34 102.62,63.81 C102.01,63.43 98.70,60.28 95.28,56.81 L 89.05 50.50 L 81.99 57.50 C73.05,66.35 65.17,76.65 60.95,85.00 C58.26,90.32 57.58,92.98 57.21,99.62 C56.92,104.98 57.14,107.97 57.88,108.43 C58.50,108.81 59.00,109.87 59.00,110.79 C59.00,111.72 60.17,114.78 61.60,117.60 C64.45,123.24 71.23,129.10 77.62,131.44 ZM 94.00 126.00 C93.15,127.58 91.95,127.99 88.21,127.93 C79.62,127.80 70.58,123.27 67.27,117.43 C61.14,106.63 61.16,99.82 67.31,101.36 C69.31,101.86 70.18,102.97 71.00,106.01 C71.59,108.20 72.48,110.00 72.97,110.00 C73.46,110.00 74.00,111.01 74.18,112.25 C74.60,115.19 83.89,120.00 89.14,120.00 C93.64,120.00 95.79,122.66 94.00,126.00 Z" fill="rgb(26,181,167)"/>
<path d="M 42.61 92.77 L 45.30 97.37 L 46.69 91.94 C46.97,90.87 47.27,89.81 47.60,88.76 C46.75,92.40 46.50,96.31 46.50,101.52 C46.50,112.12 46.63,112.79 50.00,119.44 C50.14,119.73 50.29,120.01 50.45,120.30 C48.70,117.35 45.07,112.61 41.76,109.00 C33.70,100.23 27.69,88.95 25.50,78.50 C24.51,73.76 24.03,65.21 24.02,51.99 L 24.00 32.48 L 45.63 24.34 L 67.26 16.20 L 88.52 24.19 C102.58,29.47 107.91,31.03 109.89,34.50 C111.10,36.61 111.07,39.43 111.02,44.23 C111.01,45.28 111.00,46.42 111.00,47.67 L 111.00 56.08 C111.00,55.52 109.99,54.53 108.75,53.88 C107.51,53.22 102.81,49.02 98.31,44.55 C98.21,44.45 98.10,44.35 98.00,44.25 C99.59,45.41 100.00,44.75 100.00,42.48 C100.00,39.96 99.14,39.35 93.00,37.52 C90.86,36.88 90.91,37.18 94.00,40.42 C90.91,37.62 89.38,36.76 88.37,37.07 C88.39,37.07 88.40,37.06 88.41,37.06 C89.83,36.52 87.35,35.24 78.79,32.07 L 67.27 27.80 L 51.38 33.70 L 35.50 39.61 L 35.52 58.06 C35.54,78.13 36.35,82.09 42.61,92.77 ZM 110.29 73.80 L 108.62 80.48 C105.41,93.26 96.52,107.20 86.97,114.45 C83.69,116.93 82.56,117.96 82.84,118.57 C78.56,116.92 74.45,114.18 74.18,112.25 C74.00,111.01 73.46,110.00 72.97,110.00 C72.48,110.00 71.59,108.20 71.00,106.01 C71.59,108.20 72.67,110.00 73.39,110.00 C75.48,110.00 82.19,104.73 86.88,99.40 C94.21,91.09 98.37,81.01 99.48,68.88 L 100.14 61.60 C101.40,62.80 102.33,63.63 102.62,63.81 C103.79,64.52 107.00,68.85 110.29,73.80 ZM 59.11 109.12 C60.43,110.13 62.06,110.97 62.75,110.98 C62.84,110.98 62.92,110.98 63.00,110.98 C63.41,111.00 63.67,111.00 63.80,110.87 C63.90,110.78 63.93,110.61 63.89,110.32 C64.65,112.41 65.78,114.80 67.27,117.43 C68.72,119.98 71.26,122.28 74.37,124.07 C72.24,123.26 70.88,123.21 69.33,123.72 L 66.93 124.52 C64.67,122.36 62.79,119.96 61.60,117.60 C60.17,114.78 59.00,111.72 59.00,110.79 C59.00,109.87 58.50,108.81 57.88,108.43 C57.61,108.26 57.40,107.74 57.27,106.88 C57.57,107.84 58.14,108.37 59.11,109.12 ZM 120.22 108.47 C120.44,106.60 120.50,104.28 120.50,100.98 C120.50,96.90 120.44,94.44 120.08,92.36 C121.18,97.35 121.21,103.29 120.22,108.47 ZM 75.00 49.29 C67.89,56.70 60.08,65.56 57.00,70.15 C55.81,71.93 54.75,73.56 53.81,75.08 C58.49,67.22 65.27,59.03 74.82,49.47 C74.88,49.41 74.94,49.35 75.00,49.29 ZM 51.02 121.32 C53.45,125.58 56.76,129.78 60.24,133.16 C56.43,129.54 52.88,125.11 51.07,121.44 C51.06,121.40 51.04,121.36 51.02,121.32 ZM 93.97 126.05 C93.96,126.07 93.95,126.09 93.94,126.11 C93.09,127.70 92.36,128.08 89.05,127.93 C92.10,127.91 93.19,127.47 93.97,126.05 ZM 86.99 119.78 C87.73,119.86 88.50,119.92 89.21,119.93 C91.21,119.97 92.73,120.52 93.64,121.43 C92.71,120.54 91.16,120.00 89.14,120.00 C88.48,120.00 87.75,119.92 86.99,119.78 ZM 89.05 50.50 L 92.61 54.11 L 88.99 50.56 ZM 72.31 128.76 C73.97,129.78 75.89,130.77 77.34,131.33 C75.66,130.69 73.96,129.81 72.31,128.76 ZM 118.97 88.63 C118.86,88.37 118.74,88.10 118.62,87.82 C118.75,88.11 118.87,88.39 118.97,88.63 Z" fill="rgb(47,106,227)"/>
<path d="M 0.00 80.50 L 0.00 0.00 L 78.50 0.00 L 157.00 0.00 L 157.00 80.50 L 157.00 161.00 L 78.50 161.00 L 0.00 161.00 L 0.00 80.50 ZM 108.18 139.75 C117.38,135.21 123.92,128.53 128.28,119.22 C130.97,113.49 131.49,111.10 131.82,103.00 C132.13,95.30 131.81,92.33 130.12,87.33 C127.50,79.57 122.31,70.67 115.94,63.02 L 111.00 57.09 L 111.00 47.67 C111.00,31.29 113.01,33.39 88.52,24.19 L 67.26 16.20 L 45.63 24.34 L 24.00 32.48 L 24.02 51.99 C24.03,65.21 24.51,73.76 25.50,78.50 C27.69,88.95 33.70,100.23 41.76,109.00 C45.55,113.12 49.74,118.72 51.07,121.44 C54.12,127.66 62.21,136.04 68.04,139.04 C76.09,143.17 80.01,143.99 90.59,143.72 C99.96,143.48 101.22,143.20 108.18,139.75 ZM 77.59 131.43 C75.44,130.64 72.10,128.79 70.16,127.31 L 66.64 124.62 L 69.33 123.72 C71.39,123.04 73.11,123.36 76.74,125.12 C79.34,126.38 84.02,127.59 87.14,127.82 C92.12,128.18 92.95,127.97 93.94,126.11 C95.76,122.71 93.70,120.01 89.21,119.93 C87.17,119.89 84.66,119.53 83.63,119.13 C82.04,118.50 82.52,117.82 86.97,114.45 C96.52,107.20 105.41,93.26 108.62,80.48 L 110.31 73.75 L 112.16 76.13 C113.18,77.43 115.48,81.42 117.26,84.98 C120.23,90.92 120.50,92.24 120.50,100.98 C120.50,109.01 120.13,111.25 118.11,115.31 C114.68,122.22 108.01,128.48 101.45,130.93 C94.90,133.38 83.57,133.62 77.59,131.43 ZM 59.11 109.12 C56.87,107.40 56.76,106.81 57.20,99.39 C57.58,93.06 58.32,90.22 60.95,85.00 C65.15,76.67 73.04,66.36 81.95,57.53 L 88.99 50.56 L 94.57 56.03 L 100.15 61.50 L 99.48 68.88 C98.37,81.01 94.21,91.09 86.88,99.40 C82.19,104.73 75.48,110.00 73.39,110.00 C72.67,110.00 71.59,108.20 71.00,106.01 C70.18,102.97 69.31,101.86 67.31,101.36 C63.68,100.45 61.86,103.02 63.09,107.31 C64.22,111.25 64.24,111.00 62.75,110.98 C62.06,110.97 60.43,110.13 59.11,109.12 ZM 42.61 92.77 C36.35,82.09 35.54,78.13 35.52,58.06 L 35.50 39.61 L 51.38 33.70 L 67.27 27.80 L 78.79 32.07 C87.35,35.24 89.83,36.52 88.41,37.06 C87.36,37.46 81.24,43.04 74.82,49.47 C58.38,65.92 50.18,78.30 46.69,91.94 L 45.30 97.37 L 42.61 92.77 ZM 94.45 40.89 C90.91,37.21 90.76,36.85 93.00,37.52 C99.14,39.35 100.00,39.96 100.00,42.48 C100.00,45.94 99.05,45.67 94.45,40.89 Z" fill="rgb(238,247,253)"/>
</g>
</svg>